<svg id="usMapSvg" viewBox="0 0 960 682" role="group" aria-label="Map of the United States">
                    <g class="stg" data-state="AK"><title>Alaska 阿拉斯加州 (AK)</title><path class="st-path st-none" tabindex="0" role="button" aria-label="Alaska" d="M273.2,584.8 272.9,583.4 276.1,581.0 279.5,577.5 280.3,579.3 277.2,581.5 275.3,584.0ZM285.4,577.2 287.2,578.5 283.1,579.6 282.9,577.4 284.2,576.5ZM15.6,628.1 12.2,627.2 15.6,626.5ZM134.9,543.4 135.4,544.3 137.7,545.3 136.8,548.9 137.1,551.4 134.3,551.0 132.0,552.2 131.1,551.0 129.1,549.9 126.9,547.4 125.8,546.7 124.4,543.2 125.9,543.2 129.0,544.3 129.7,543.3 132.4,542.7ZM94.3,632.2 91.5,632.7 89.6,634.1 87.2,634.9 86.7,633.8 87.4,632.3 88.7,631.6 90.3,632.1 91.6,629.9 93.2,629.4 94.9,629.6 96.1,630.9ZM167.7,580.0 166.5,579.8 166.4,578.3 167.7,577.6 170.0,577.3ZM380.5,670.6 382.5,670.8 382.1,672.5 380.7,673.0 378.5,669.4 377.8,666.6 376.5,666.0 377.7,664.6 379.1,666.2ZM374.4,624.3 372.2,623.8 373.0,622.6ZM353.5,416.0 351.5,428.8 349.5,441.3 347.6,453.5 345.7,465.3 343.9,476.8 342.1,488.0 340.4,498.9 338.7,509.6 337.1,520.0 335.4,530.2 332.3,549.8 329.4,568.6 326.5,586.6 330.0,588.4 330.7,587.3 334.2,589.6 336.8,587.8 341.5,588.2 340.1,592.0 341.0,593.6 343.4,595.3 343.7,597.2 350.6,606.5 351.1,611.4 352.6,610.3 356.5,608.5 358.4,608.7 359.5,607.0 359.9,604.3 361.7,603.5 361.3,602.4 364.4,601.9 368.3,600.4 371.2,604.1 370.7,606.1 371.4,608.4 375.0,611.9 376.3,615.5 379.2,618.0 382.0,622.6 381.7,623.7 382.6,625.4 387.2,636.2 389.2,640.7 388.2,642.2 390.5,643.2 389.7,645.5 391.5,646.5 391.5,649.3 393.5,649.4 397.2,652.5 399.8,653.6 401.8,655.3 402.2,656.8 405.1,658.6 404.9,660.3 403.6,663.2 404.0,668.0 402.2,671.3 399.7,673.5 398.6,674.0 396.7,673.6 395.6,668.9 397.5,666.5 397.5,661.5 396.2,658.4 394.9,657.5 390.7,658.9 389.7,661.8 388.6,663.1 387.6,662.6 387.0,660.5 389.0,657.9 390.7,655.1 389.6,652.0 388.4,651.3 387.3,648.3 386.4,647.9 386.5,646.3 384.2,644.3 384.3,642.3 379.3,639.9 379.8,637.6 379.4,634.5 378.7,633.2 379.5,632.6 382.8,634.8 378.9,630.4 378.3,630.2 376.4,626.8 376.4,624.8 375.3,624.4 373.3,622.2 372.0,621.8 371.2,620.7 370.2,617.7 370.2,616.3 369.1,614.7 368.9,611.3 368.3,608.8 366.9,609.1 367.6,610.9 367.7,613.6 368.8,622.5 367.9,623.4 366.7,622.9 364.8,620.4 362.4,620.4 362.9,617.8 361.8,614.5 360.4,614.7 358.6,613.0 358.1,611.8 356.1,610.9 355.5,612.3 357.7,614.0 358.8,615.4 358.1,616.5 360.1,617.0 360.8,618.5 360.3,620.7 357.7,620.7 356.6,621.7 353.0,619.1 349.7,615.9 348.3,613.9 346.6,610.2 344.4,607.7 337.3,602.3 334.1,599.3 335.7,598.6 336.8,597.0 336.4,595.1 337.3,592.6 334.3,595.0 331.2,596.1 329.6,596.1 326.4,595.1 322.4,592.1 323.5,591.1 323.4,589.5 320.5,590.7 314.0,587.9 311.0,587.2 306.5,587.1 304.1,587.3 301.5,586.8 302.1,585.9 300.5,584.0 298.2,583.1 296.5,581.0 297.6,578.1 296.4,577.9 294.0,579.9 289.2,577.5 291.4,575.2 287.8,574.4 287.3,572.9 284.7,570.1 285.8,566.6 283.2,568.1 280.3,568.0 279.6,568.7 277.7,567.4 277.0,568.4 275.1,568.4 274.5,567.0 276.4,563.9 273.1,565.8 271.6,568.3 269.8,568.7 271.7,570.7 271.0,573.2 273.0,573.1 273.4,574.4 271.5,575.5 270.7,578.9 269.5,579.3 268.4,581.2 265.1,581.1 263.2,579.5 260.7,579.5 259.5,580.9 257.5,581.1 257.3,582.7 253.5,584.7 250.6,584.1 249.4,586.0 246.7,588.2 243.6,587.5 240.5,587.7 239.1,586.0 240.3,584.4 244.1,583.5 246.1,582.1 241.9,580.3 241.4,578.9 243.0,576.1 245.8,573.3 247.7,569.6 248.0,566.6 248.5,565.4 251.6,564.5 256.1,562.5 257.7,563.9 259.2,564.5 262.0,564.8 265.3,566.6 265.7,565.8 262.5,564.3 260.0,561.7 261.6,559.0 265.2,556.6 263.2,556.7 260.7,559.1 256.6,558.8 255.7,557.9 252.8,559.0 250.9,560.4 247.2,561.4 245.9,562.2 245.3,564.5 243.2,565.2 240.6,567.1 240.3,568.9 239.2,569.9 236.7,570.8 236.3,573.8 234.9,575.4 232.1,575.5 232.1,577.7 229.4,578.2 229.3,577.0 225.4,580.2 222.9,581.3 221.6,584.1 221.8,584.7 225.2,586.7 226.8,588.2 227.1,589.8 224.3,592.2 222.2,592.8 220.7,593.8 219.8,595.5 218.6,596.3 217.9,598.1 215.3,598.1 215.0,598.9 211.6,598.7 210.5,600.0 208.5,601.1 206.1,601.6 204.1,603.5 202.3,603.4 201.6,604.7 200.2,604.3 197.9,605.5 198.3,606.8 197.3,608.5 195.8,609.5 194.6,609.3 190.6,611.1 189.2,610.8 187.1,612.7 184.9,612.0 183.7,613.2 179.9,613.8 178.7,614.8 179.7,615.6 180.3,617.1 177.9,618.3 177.4,617.0 175.6,618.9 169.2,619.7 167.6,618.9 165.7,619.1 161.0,621.1 157.5,620.8 155.5,621.8 153.2,621.6 152.7,620.2 153.8,619.3 153.4,618.2 151.3,619.0 150.4,620.6 147.0,623.1 144.6,623.7 143.6,620.9 142.7,621.0 142.5,622.9 141.7,623.7 140.1,623.8 138.5,621.9 137.9,623.7 136.4,624.4 137.4,620.8 138.9,620.3 140.1,620.7 144.5,618.3 148.2,615.6 152.5,614.2 156.6,613.7 158.7,617.6 159.7,616.7 163.2,617.5 161.9,615.2 164.7,611.7 169.6,609.5 173.9,608.8 176.8,607.1 179.1,608.5 180.0,605.3 183.4,602.5 186.0,601.5 187.5,600.4 190.0,599.7 189.9,597.6 191.4,593.6 193.1,592.2 193.3,588.6 194.1,587.6 196.3,586.1 198.6,585.2 197.8,582.9 193.3,583.7 190.2,584.6 188.1,584.1 187.2,580.7 188.3,578.8 187.9,577.6 186.2,579.3 185.6,578.8 184.0,581.9 184.0,584.9 183.6,586.0 182.3,586.2 181.5,585.0 180.2,580.9 178.5,577.7 176.2,578.5 174.7,576.8 173.6,574.4 169.5,576.0 166.2,576.2 164.6,577.8 161.4,577.8 158.5,576.6 161.0,576.1 162.3,575.3 162.6,572.1 161.6,569.8 161.8,567.8 162.9,566.8 164.4,563.8 163.5,557.5 163.5,554.4 162.6,552.5 166.0,548.1 165.0,548.1 161.3,551.9 161.4,554.6 160.3,556.5 159.1,556.1 157.7,556.9 154.8,557.3 151.1,557.0 149.5,556.5 148.0,554.7 148.5,553.3 146.5,550.3 145.7,547.6 144.7,547.3 143.1,545.2 143.8,544.0 141.5,542.7 144.8,540.4 146.2,538.7 147.0,538.6 149.9,540.9 150.4,542.2 152.6,542.1 153.3,542.6 153.9,545.3 155.7,544.6 156.9,543.4 154.3,540.7 149.7,539.7 147.6,538.1 145.2,537.6 144.6,536.7 145.8,535.0 144.0,532.5 143.6,534.2 142.2,533.8 142.1,530.6 141.0,529.7 141.0,528.5 142.1,527.4 141.2,526.2 139.7,525.8 140.5,524.4 142.7,524.4 141.4,522.0 145.1,522.0 144.8,519.5 145.4,518.1 150.9,513.3 153.9,512.3 154.5,511.7 154.9,508.7 156.3,506.2 157.1,505.5 159.5,505.6 158.7,504.1 159.9,502.9 162.4,502.7 164.8,504.6 166.9,507.7 169.2,507.8 171.7,506.2 173.3,505.6 176.9,501.9 178.2,502.1 178.9,503.7 182.4,504.3 184.2,504.3 185.7,503.6 188.5,501.3 189.2,499.8 189.2,496.0 189.5,492.1 188.5,489.2 187.5,488.1 187.7,486.5 189.2,487.1 191.4,486.5 192.5,484.9 192.7,482.8 191.9,480.6 191.1,480.0 188.5,481.8 186.5,480.8 185.3,481.9 182.9,482.5 176.9,486.5 177.0,483.9 175.3,481.0 174.3,481.6 175.8,483.6 174.6,485.0 172.7,482.2 171.3,481.1 167.0,480.0 162.1,481.0 160.4,480.4 158.4,479.0 153.7,476.4 152.6,475.2 152.0,473.2 153.4,469.8 152.6,469.1 151.3,466.0 153.7,465.6 154.8,464.1 156.9,463.6 153.7,462.0 148.9,459.0 145.5,455.2 145.2,453.4 149.3,452.6 151.1,451.2 153.5,451.5 156.8,449.0 159.7,448.0 161.2,447.8 162.4,449.2 164.3,449.9 165.8,449.2 164.2,447.2 165.0,446.0 167.8,444.9 170.7,445.1 174.1,443.7 175.7,443.5 178.7,443.8 180.3,444.8 180.3,445.9 178.6,448.5 178.2,450.2 176.9,451.3 178.6,454.4 182.3,455.5 184.4,455.6 186.3,457.1 189.1,457.4 191.8,458.4 194.6,455.3 195.5,454.9 197.0,456.5 198.1,454.5 195.5,452.4 193.3,452.5 193.5,450.1 192.3,445.8 190.6,444.4 190.4,441.2 192.4,440.6 193.0,441.3 193.3,443.8 194.0,444.4 193.2,446.5 193.6,448.8 195.4,451.3 197.4,451.1 199.3,452.0 200.8,454.2 201.7,454.6 204.9,454.5 205.4,451.6 204.9,450.6 202.8,450.3 201.6,448.6 200.2,448.6 197.2,449.9 196.2,448.8 194.7,446.2 195.1,444.2 197.7,441.3 195.7,439.4 192.5,439.1 188.3,437.9 184.9,435.4 184.1,433.3 184.0,427.3 183.4,424.5 177.1,413.3 173.7,410.0 172.5,407.0 170.4,405.4 172.4,403.7 173.9,400.8 175.9,396.4 176.2,394.5 180.9,396.2 184.2,396.8 189.6,397.0 193.1,395.7 196.1,393.5 199.9,389.5 201.7,384.8 203.5,381.8 209.5,375.5 214.1,370.9 215.1,373.6 219.9,373.1 222.9,371.0 223.1,370.5 227.4,368.0 228.3,368.8 226.8,370.8 227.3,371.5 226.1,374.0 227.7,374.6 228.9,370.7 229.6,370.1 228.7,367.3 231.5,364.2 234.5,362.7 236.1,365.0 238.6,365.7 239.8,365.0 243.1,365.6 246.2,364.0 249.8,361.1 253.9,356.3 255.4,356.1 255.8,357.5 259.6,361.0 260.7,361.4 260.8,362.9 258.6,365.6 255.9,366.6 256.6,368.9 257.3,369.2 259.6,368.3 263.4,364.1 264.8,364.8 266.1,367.5 264.9,369.5 265.9,370.9 268.4,372.6 270.6,371.2 273.5,371.5 275.5,370.9 278.3,372.9 280.3,373.2 281.6,375.2 279.9,376.7 279.3,378.5 280.4,379.7 280.8,381.2 283.5,381.7 281.8,384.0 286.6,385.8 287.4,385.1 290.8,384.4 292.3,386.3 294.0,386.7 296.2,385.5 300.2,386.6 302.8,388.9 303.8,389.3 304.8,391.8 306.5,391.2 308.9,393.0 309.6,395.2 313.8,397.1 316.1,397.0 319.2,397.7 320.6,398.6 322.3,398.9 324.4,401.8 325.9,403.1 329.8,404.4 331.4,403.3 333.9,403.4 336.3,402.7 338.9,403.4 340.0,403.0 343.1,405.4 344.8,407.9 345.4,409.6 349.1,412.5 350.7,415.5ZM164.3,627.7 162.7,628.4 161.9,627.2 164.4,626.5ZM367.7,635.9 368.5,638.7 369.3,644.9 368.7,647.5 368.5,650.4 366.8,649.9 366.1,647.2 366.1,645.2 363.8,642.7 364.2,641.3 365.3,640.1 364.2,639.2 364.1,637.7 363.2,636.8 362.1,639.1 360.9,638.5 361.1,635.5 362.9,634.7 363.9,633.1 365.0,633.0ZM232.8,598.4 233.7,597.8 235.8,600.7 234.6,601.7 231.0,601.8 228.9,602.6 227.3,602.5 224.4,600.6 228.2,598.3 229.7,598.9 229.6,596.9 231.0,596.7ZM275.6,575.4 274.4,578.7 273.4,578.4 274.6,575.1ZM110.6,481.0 113.4,482.8 114.6,483.1 116.5,482.3 118.4,482.3 120.2,484.3 120.3,486.6 122.9,488.5 123.9,490.3 127.0,491.2 128.9,492.4 127.2,494.4 123.5,493.3 120.2,496.1 120.1,493.6 119.0,491.9 117.6,491.1 117.4,489.5 116.1,487.3 114.1,485.6 112.5,485.1 109.5,486.1 107.9,485.4 107.1,483.8 107.8,481.2 108.9,479.3 109.7,479.1ZM113.6,628.3 112.0,628.1 112.0,626.5 113.7,626.5ZM20.6,627.9 21.4,629.5 18.3,630.0 18.1,628.0ZM85.8,527.6 87.1,529.0 86.0,529.7 83.5,526.3 84.0,525.2ZM36.4,631.0 33.0,629.7 40.0,629.9 39.4,628.4 41.8,627.9 42.7,629.3 41.2,631.2ZM371.4,624.9 374.9,625.6 374.1,627.1 374.2,629.2 376.1,633.3 376.0,637.2 374.5,637.5 373.0,639.4 371.4,640.5 370.2,639.8 371.7,634.6 370.6,632.3 370.5,622.5ZM384.0,649.3 382.5,649.2 383.7,645.6 385.0,647.3 385.5,648.8ZM388.5,655.5 388.0,657.7 386.8,657.7 385.6,655.9 384.0,655.4 383.9,653.7 384.8,653.3 386.9,650.0 387.4,650.2 389.0,653.7ZM396.7,664.7 395.5,667.5 394.6,668.1 392.8,667.0 392.9,665.8 389.5,667.3 389.6,664.8 391.4,662.8 392.0,659.6 395.0,658.3 396.1,659.7 397.0,662.3ZM379.8,642.3 382.2,642.9 382.9,644.3 382.7,646.6 380.2,649.7 377.1,649.3 376.8,648.6 377.0,644.7 375.0,641.6 376.0,640.9ZM158.5,623.7 159.6,625.8 156.9,625.2 157.2,623.5ZM377.1,651.0 380.0,651.6 380.7,652.9 380.5,654.8 383.1,656.4 384.2,657.8 385.2,660.7 383.6,663.5 385.0,663.4 386.5,664.9 386.3,667.0 388.2,667.4 387.6,672.6 386.2,673.6 384.8,670.9 383.2,670.1 383.0,668.8 381.4,668.7 379.3,664.3 380.5,664.0 379.7,662.5 379.8,661.1 378.1,660.9 377.2,658.3 379.1,656.9 378.2,655.2 375.5,656.2 375.1,655.3 377.1,653.6ZM224.5,614.3 221.4,614.7 222.5,613.1ZM383.3,653.0 381.4,651.5 382.7,650.1 384.7,651.3ZM378.0,661.8 378.1,662.4 374.7,665.0 375.3,661.5ZM374.6,643.8 375.8,644.8 376.3,646.7 375.2,647.5 374.5,651.3 373.7,653.4 371.7,653.9 371.5,652.1 372.2,649.4 373.2,648.9 371.7,647.1 371.2,645.0 371.5,643.5 373.5,642.5ZM9.6,626.9 9.2,625.3 8.0,623.4 10.0,623.6 11.0,625.7ZM363.3,622.7 364.2,624.2 363.7,626.3 366.1,624.8 368.7,626.1 369.1,627.6 368.5,629.4 366.4,629.2 366.1,630.3 368.3,630.7 368.9,632.7 368.2,634.1 367.0,633.6 364.0,631.0 363.1,631.1 362.7,633.4 362.1,634.2 360.4,633.6 359.5,630.3 356.8,627.1 356.1,625.6 356.8,623.9 360.3,622.9ZM106.9,628.6 107.8,629.1 109.2,627.9 110.1,629.1 107.5,630.3 107.4,632.0 104.2,633.3 101.0,633.3 97.6,634.0 95.5,632.8 101.5,631.9 103.0,630.1 102.8,627.8 104.3,627.0 107.1,627.4ZM393.2,669.6 393.8,672.0 392.4,671.9 392.3,670.6 391.1,669.3 391.4,667.9 392.8,667.8ZM227.4,605.0 230.5,605.3 230.7,608.3 232.0,609.5 230.1,610.9 227.2,610.3 227.7,611.9 226.1,611.9 224.5,612.7 222.7,612.5 220.6,613.3 219.2,614.5 217.8,616.6 215.9,617.4 215.3,616.6 217.9,614.8 216.5,613.6 216.2,612.4 214.2,612.0 214.9,613.9 213.4,614.8 212.5,613.0 212.5,610.6 211.8,608.6 212.4,607.1 213.8,605.8 216.0,605.2 218.0,605.7 218.9,609.8 219.5,606.6 220.7,605.9 219.5,603.4 221.5,603.3 222.2,605.2 225.0,604.6 225.8,602.5 228.0,604.1ZM135.4,622.2 135.5,625.5 133.3,626.4 129.5,625.4 128.0,625.6 125.7,626.9 122.8,626.2 123.0,623.8 124.7,623.1 126.7,621.2 128.8,621.5 132.5,620.6 134.6,621.0Z"/><text class="st-label" x="255" y="490">AK</text></g>
                    <g class="stg" data-state="AL"><title>Alabama 阿拉巴马州 (AL)</title><path class="st-path st-prog" tabindex="0" role="button" aria-label="Alabama" d="M740.6,295.8 745.1,311.5 748.3,322.8 750.9,331.7 751.9,334.4 754.6,339.1 756.4,343.9 755.1,345.9 754.3,350.8 754.5,352.7 755.9,356.2 755.9,361.2 756.7,364.3 757.8,366.3 743.1,367.9 733.3,369.0 718.5,370.3 718.6,372.9 719.2,374.0 721.6,376.0 721.8,379.5 721.1,381.3 719.2,383.5 716.6,383.3 715.4,381.3 714.3,380.6 713.6,377.5 712.3,376.6 711.2,382.4 707.1,382.6 705.8,372.3 703.6,355.6 703.8,348.9 704.3,332.2 704.7,318.8 705.1,300.4 703.7,299.4 703.5,298.9 715.1,298.0 724.4,297.3Z"/><text class="st-label" x="727.0" y="337.3">AL</text></g>
                    <g class="stg" data-state="AR"><title>Arkansas 阿肯色州 (AR)</title><path class="st-path st-prog" tabindex="0" role="button" aria-label="Arkansas" d="M680.3,283.0 680.5,284.7 679.5,286.5 677.9,287.7 677.3,289.0 677.6,290.5 677.2,292.2 675.8,293.9 675.3,295.7 675.7,297.7 675.1,299.3 673.0,301.5 672.7,303.4 671.4,304.3 669.7,306.6 669.3,310.7 668.6,312.4 667.5,312.8 666.1,315.4 664.8,316.7 664.5,319.5 662.7,320.6 663.1,323.3 660.9,326.1 660.9,327.8 662.1,330.3 661.9,332.9 662.9,334.3 662.4,338.0 643.4,338.8 632.7,339.2 619.3,339.6 619.0,329.8 615.4,329.3 614.1,329.7 612.5,328.2 612.6,314.5 612.7,296.8 609.8,276.8 621.7,276.6 629.6,276.3 641.5,275.9 649.5,275.6 661.4,275.0 673.2,274.4 674.6,276.6 674.7,278.0 671.7,281.7 670.7,283.7Z"/><text class="st-label" x="641.8" y="304.9">AR</text></g>
                    <g class="stg" data-state="AZ"><title>Arizona 亚利桑那州 (AZ)</title><path class="st-path st-flat" tabindex="0" role="button" aria-label="Arizona" d="M406.0,255.2 403.4,274.3 400.8,293.3 399.0,306.0 396.4,324.9 394.6,337.6 392.0,356.5 377.9,354.6 362.0,352.1 348.6,344.5 335.4,336.8 328.8,332.9 315.8,325.0 309.3,321.0 311.7,317.7 313.8,317.8 314.9,317.3 316.1,315.0 315.3,312.5 314.0,311.6 313.6,309.7 313.9,306.8 314.5,305.3 316.1,304.7 318.4,301.2 319.0,297.3 320.8,295.0 322.4,293.6 325.8,291.6 325.6,290.3 323.0,287.4 323.0,285.5 321.4,281.4 321.0,279.3 321.3,277.8 322.9,271.4 322.5,269.1 323.1,266.4 323.0,264.5 323.5,261.2 323.1,259.3 323.7,258.1 325.6,257.3 328.3,257.9 329.7,259.8 331.0,260.6 333.5,258.2 336.3,243.7 349.3,246.1 366.7,249.2 384.2,252.0 392.9,253.3Z"/><text class="st-label" x="361.5" y="298.2">AZ</text></g>
                    <g class="stg" data-state="CA"><title>California 加利福尼亚州 (CA)</title><path class="st-path st-prog" tabindex="0" role="button" aria-label="California" d="M261.5,294.3 259.8,295.2 259.5,293.3ZM239.5,278.9 237.7,278.5 237.0,276.5 239.6,277.0 240.6,278.2ZM276.6,137.8 272.3,154.2 269.0,167.3 266.4,177.1 263.0,190.2 272.7,204.9 282.6,219.4 288.5,228.5 298.4,243.5 306.8,256.3 315.3,269.0 321.3,277.8 321.0,279.3 321.4,281.4 323.0,285.5 323.0,287.4 325.6,290.3 325.8,291.6 322.4,293.6 320.8,295.0 319.0,297.3 318.4,301.2 316.1,304.7 314.5,305.3 313.9,306.8 313.6,309.7 314.0,311.6 315.3,312.5 316.1,315.0 314.9,317.3 313.8,317.8 311.7,317.7 301.4,316.6 292.8,315.6 275.8,313.4 276.1,311.3 274.6,310.7 274.8,308.1 275.4,305.8 275.2,302.8 273.9,298.9 270.2,293.6 268.2,291.6 266.8,289.3 264.3,288.1 263.7,288.8 262.1,287.8 262.8,285.9 261.9,282.7 260.6,282.1 257.3,281.4 253.2,278.8 252.1,277.6 252.1,275.8 248.0,271.8 244.4,271.0 241.8,269.3 236.9,268.2 235.8,267.7 234.0,265.2 235.3,261.2 235.4,258.7 236.4,256.5 235.8,254.9 233.9,253.4 234.6,250.7 234.3,249.5 232.9,248.0 231.9,245.4 230.2,243.6 229.9,241.4 227.2,233.9 225.1,230.0 225.7,225.6 228.2,223.3 228.6,221.2 228.0,219.4 224.4,217.4 222.3,212.8 223.0,209.8 222.6,206.5 223.5,202.5 225.4,202.7 224.9,205.1 226.3,207.2 227.7,207.9 227.3,204.3 226.6,203.0 226.2,199.7 228.8,199.0 230.6,199.3 235.5,201.0 235.3,200.0 233.5,199.6 231.7,198.2 229.8,198.8 227.0,196.5 225.6,196.8 224.7,199.4 224.5,201.5 221.1,198.5 219.1,195.1 219.7,191.9 219.1,191.2 218.8,188.4 217.0,186.2 215.9,183.3 213.5,178.2 214.3,174.6 214.3,169.7 215.6,167.3 216.1,165.5 216.0,160.9 214.3,156.0 212.4,152.4 213.0,148.1 215.3,144.7 216.4,143.8 218.6,140.8 219.5,137.6 221.6,133.9 222.0,132.6 222.2,127.8 221.5,126.3 222.5,124.7 222.8,122.7 233.0,125.7 243.0,128.6 253.0,131.5 263.1,134.2ZM242.5,276.7 246.8,279.2 243.1,278.9 242.1,278.2Z"/><text class="st-label" x="262.2" y="223.8">CA</text></g>
                    <g class="stg" data-state="CO"><title>Colorado 科罗拉多州 (CO)</title><path class="st-path st-flat" tabindex="0" role="button" aria-label="Colorado" d="M508.3,211.1 507.7,221.2 506.9,234.8 506.1,248.3 505.1,265.2 491.1,264.2 475.1,263.0 464.5,262.0 453.8,261.0 443.2,259.8 432.6,258.6 421.9,257.3 406.0,255.2 407.3,246.3 409.7,228.4 412.2,210.5 414.7,192.6 415.9,183.7 432.6,185.9 445.1,187.4 453.5,188.3 470.2,190.0 482.8,191.1 496.1,192.2 509.5,193.1Z"/><text class="st-label" x="459.0" y="225.2">CO</text></g>
                    <g class="stg" data-state="FL"><title>Florida 佛罗里达州 (FL)</title><path class="st-path st-none" tabindex="0" role="button" aria-label="Florida" d="M811.7,363.9 812.6,365.4 814.7,371.8 815.8,374.0 818.1,379.9 821.3,385.5 825.6,392.2 833.0,401.2 832.0,404.4 829.9,402.2 830.2,400.0 828.8,399.3 828.5,397.5 827.4,397.2 829.8,403.6 831.9,406.9 841.4,422.9 843.4,424.9 845.4,429.5 846.2,433.6 846.4,441.5 847.0,446.7 845.8,448.6 844.9,451.0 845.0,454.4 844.6,456.2 843.0,458.2 841.9,458.4 839.2,460.2 837.1,460.2 834.8,461.3 833.2,461.5 832.0,460.0 832.9,458.3 830.1,454.0 827.8,451.7 827.2,450.0 823.7,449.4 821.1,448.2 819.2,445.6 817.5,440.6 814.5,439.0 813.4,436.4 813.1,433.1 812.5,431.9 811.2,432.5 811.5,434.3 809.6,434.0 806.8,431.0 803.1,425.4 801.3,423.8 802.5,423.2 805.4,417.2 804.6,416.1 803.4,416.7 801.6,419.9 800.4,420.2 798.4,418.0 799.0,410.9 799.7,406.3 798.9,399.2 796.6,396.6 787.6,390.6 780.3,383.0 774.5,380.5 770.5,381.7 769.9,382.4 769.7,384.6 767.2,385.1 763.6,387.8 762.2,387.9 760.1,389.1 755.8,390.4 755.7,388.3 754.8,387.0 752.3,385.4 749.4,383.1 750.2,380.1 748.1,381.1 748.1,382.5 741.3,380.2 736.9,379.4 740.1,378.6 739.8,377.5 736.8,377.7 733.5,379.7 725.6,381.6 726.7,380.5 728.7,379.7 725.7,378.0 725.6,379.6 724.3,381.7 721.4,382.8 721.1,381.3 721.8,379.5 721.6,376.0 719.2,374.0 718.6,372.9 718.5,370.3 733.3,369.0 743.1,367.9 757.8,366.3 760.3,371.1 769.1,370.6 786.2,369.6 800.9,368.5 802.1,371.5 804.1,371.0 804.3,368.2 803.5,365.1 804.9,363.4 809.1,364.2ZM841.8,421.6 840.4,420.1 837.8,415.7 838.0,415.0Z"/><text class="st-label" x="816.0" y="408.0">FL</text></g>
                    <g class="stg" data-state="GA"><title>Georgia 佐治亚州 (GA)</title><path class="st-path st-flat" tabindex="0" role="button" aria-label="Georgia" d="M817.5,339.4 817.0,341.0 814.4,342.7 815.3,343.7 814.9,344.8 813.6,346.0 814.4,349.0 813.1,352.1 813.5,354.0 812.6,355.8 811.3,355.5 811.4,357.5 811.0,361.4 811.7,363.9 809.1,364.2 804.9,363.4 803.5,365.1 804.3,368.2 804.1,371.0 802.1,371.5 800.9,368.5 786.2,369.6 769.1,370.6 760.3,371.1 757.8,366.3 756.7,364.3 755.9,361.2 755.9,356.2 754.5,352.7 754.3,350.8 755.1,345.9 756.4,343.9 754.6,339.1 751.9,334.4 750.9,331.7 748.3,322.8 745.1,311.5 740.6,295.8 759.4,293.8 776.8,291.3 774.4,295.2 774.0,297.0 777.0,298.6 778.9,300.0 782.1,300.9 782.7,302.1 786.9,307.8 792.4,311.9 793.3,313.4 796.7,315.4 797.9,316.6 800.9,320.8 804.2,322.6 805.8,324.7 807.2,328.3 808.4,330.3 809.8,331.0 812.1,333.9 813.2,337.3 814.3,338.5Z"/><text class="st-label" x="777.6" y="334.0">GA</text></g>
                    <g class="stg" data-state="HI"><title>Hawaii 夏威夷州 (HI)</title><path class="st-path st-prog" tabindex="0" role="button" aria-label="Hawaii" d="M467.9,500.2 469.8,500.8 471.5,503.2 470.7,504.3 468.0,504.7 467.7,502.7 466.5,500.6ZM467.7,494.6 469.8,495.1 473.4,495.2 474.0,495.9 472.3,497.5 470.5,498.0 466.9,496.4 462.7,496.3 462.8,494.5 464.3,493.9ZM476.4,498.6 478.2,501.4 480.0,501.6 481.6,500.9 483.7,501.4 485.9,503.9 487.9,504.6 488.6,505.8 488.0,507.0 485.3,508.4 484.0,508.1 481.9,508.9 478.9,508.5 478.4,504.2 477.2,504.4 475.2,503.5 474.1,501.7 474.0,500.5 475.3,498.6ZM476.7,508.9 476.4,509.6 474.0,510.3 473.8,509.0 475.8,508.1ZM449.0,481.4 451.5,485.2 451.9,487.7 453.8,488.6 454.0,490.0 453.3,491.3 451.3,491.5 449.4,490.3 445.6,490.3 443.4,484.8 442.5,483.7 445.9,483.8 447.9,481.8ZM418.8,467.4 420.9,467.1 422.7,468.2 423.1,469.6 422.0,471.2 421.9,473.0 419.2,474.8 416.0,473.7 414.9,472.5 413.4,471.8 412.6,470.4 414.8,467.8 418.0,466.6ZM407.2,470.6 406.7,472.8 405.0,473.2 403.5,475.1 402.9,474.3 403.5,472.6Z"/><text class="st-label" x="477.0" y="504.0">HI</text></g>
                    <g class="stg" data-state="IA"><title>Iowa 爱荷华州 (IA)</title><path class="st-path st-flat" tabindex="0" role="button" aria-label="Iowa" d="M660.2,166.4 662.5,168.6 664.5,171.5 667.0,173.4 667.3,175.6 666.6,178.7 665.4,180.6 665.1,182.0 664.0,183.4 662.1,184.7 657.5,186.2 656.1,187.3 655.7,188.9 657.7,193.6 655.9,198.5 654.5,200.4 652.9,201.3 652.2,202.5 652.3,205.0 651.7,205.4 648.3,202.4 647.6,201.1 637.4,201.6 623.8,202.2 610.2,202.6 593.3,202.8 592.0,200.2 592.3,197.6 591.7,190.5 590.8,189.0 591.0,188.0 590.2,186.3 589.3,185.8 589.2,182.4 588.1,178.2 586.2,175.2 585.4,172.9 585.1,170.1 583.8,168.4 583.1,165.7 582.0,164.4 584.1,157.8 583.8,155.9 582.9,155.4 583.1,152.9 582.4,150.6 584.3,150.6 601.1,150.5 613.7,150.4 626.3,150.1 634.7,149.8 651.5,149.0 652.0,150.9 653.3,152.0 653.0,156.2 653.7,160.1 654.5,161.7 655.9,162.9 658.2,163.6 659.6,164.7Z"/><text class="st-label" x="623.2" y="175.6">IA</text></g>
                    <g class="stg" data-state="ID"><title>Idaho 爱达荷州 (ID)</title><path class="st-path st-flat" tabindex="0" role="button" aria-label="Idaho" d="M399.3,117.5 397.5,128.6 395.3,142.5 392.2,161.9 380.0,159.9 367.9,157.8 353.3,155.1 338.9,152.2 324.5,149.2 314.9,147.0 319.2,127.4 322.0,115.2 323.4,112.7 324.1,110.1 324.8,108.7 323.7,107.1 321.9,105.4 322.2,103.8 323.8,101.5 326.6,98.7 328.3,96.5 328.8,95.2 330.8,92.3 334.2,87.7 335.8,84.7 335.6,83.2 333.2,79.9 332.1,77.3 331.9,75.0 332.4,73.1 332.0,71.3 332.2,69.5 335.9,52.8 338.4,41.6 342.0,25.0 353.5,27.5 349.9,44.7 352.5,50.6 352.5,54.4 351.9,55.4 354.0,58.1 355.5,59.3 359.2,66.3 359.5,67.7 360.7,70.0 361.7,69.9 362.3,71.6 365.5,72.3 365.0,74.2 362.0,80.7 361.7,82.9 362.2,84.0 362.0,85.9 360.1,87.2 360.2,89.0 359.4,90.8 362.0,92.9 367.0,90.4 368.5,92.1 368.3,93.2 368.8,97.6 370.0,100.8 370.8,102.2 370.4,104.7 371.6,107.1 373.5,107.7 374.4,109.3 374.8,113.7 376.9,115.4 378.4,114.0 382.4,115.3 384.7,114.0 390.0,115.3 391.8,115.2 393.8,115.8 394.9,113.0 396.4,112.6 397.7,115.6Z"/><text class="st-label" x="356.0" y="105.0">ID</text></g>
                    <g class="stg" data-state="IL"><title>Illinois 伊利诺伊州 (IL)</title><path class="st-path st-flat" tabindex="0" role="button" aria-label="Illinois" d="M697.3,164.0 698.0,169.1 699.5,171.3 701.1,175.2 702.4,177.5 703.7,193.1 704.6,203.9 706.0,219.8 705.0,221.4 704.7,223.7 706.8,228.2 707.0,231.2 705.9,234.9 704.0,237.3 703.6,238.9 701.6,240.6 702.1,241.9 701.4,243.1 701.2,246.3 700.6,247.5 701.4,249.0 700.3,250.7 700.9,253.6 699.8,255.0 695.7,257.2 696.6,260.5 696.4,262.1 694.4,261.9 690.6,260.8 688.2,261.0 687.1,262.5 686.9,264.6 685.2,263.1 683.1,262.8 682.0,260.9 681.6,259.3 682.0,256.9 680.9,253.2 679.4,251.4 674.3,247.7 673.0,247.2 669.5,244.3 668.3,241.9 668.9,239.2 671.1,232.3 669.8,231.2 666.2,230.5 664.9,231.3 663.6,229.9 662.4,226.5 659.7,222.9 655.5,219.2 653.1,216.7 652.4,215.3 651.1,210.5 651.0,208.2 651.7,205.4 652.3,205.0 652.2,202.5 652.9,201.3 654.5,200.4 655.9,198.5 657.7,193.6 655.7,188.9 656.1,187.3 657.5,186.2 662.1,184.7 664.0,183.4 665.1,182.0 665.4,180.6 666.6,178.7 667.3,175.6 667.0,173.4 664.5,171.5 662.5,168.6 660.2,166.4 678.0,165.4 689.8,164.6Z"/><text class="st-label" x="682.4" y="209.6">IL</text></g>
                    <g class="stg" data-state="IN"><title>Indiana 印第安纳州 (IN)</title><path class="st-path st-flat" tabindex="0" role="button" aria-label="Indiana" d="M738.3,174.2 739.6,185.9 740.9,197.6 742.2,209.3 743.5,221.1 743.5,224.3 744.4,225.9 743.1,227.0 739.6,228.8 737.6,228.2 735.8,229.4 736.3,230.9 734.8,233.1 733.7,235.7 731.9,237.1 731.1,238.4 730.0,242.2 728.1,242.8 726.5,242.1 725.3,240.6 723.3,240.6 722.5,242.4 722.0,244.8 720.3,245.4 718.9,244.3 717.5,244.1 716.1,245.0 714.0,247.6 710.5,245.7 707.3,245.6 707.3,247.4 705.8,246.6 703.1,246.8 703.2,248.3 701.4,249.0 700.6,247.5 701.2,246.3 701.4,243.1 702.1,241.9 701.6,240.6 703.6,238.9 704.0,237.3 705.9,234.9 707.0,231.2 706.8,228.2 704.7,223.7 705.0,221.4 706.0,219.8 704.6,203.9 703.7,193.1 702.4,177.5 703.9,178.7 706.0,178.8 708.4,178.0 711.0,176.1 726.2,174.6 738.2,173.2Z"/><text class="st-label" x="722.1" y="208.8">IN</text></g>
                    <g class="stg" data-state="KS"><title>Kansas 堪萨斯州 (KS)</title><path class="st-path st-prog" tabindex="0" role="button" aria-label="Kansas" d="M609.7,267.7 593.3,267.9 583.5,267.9 567.2,267.7 557.3,267.5 547.5,267.2 537.7,266.9 524.7,266.3 514.9,265.8 505.1,265.2 506.1,248.3 506.9,234.8 507.7,221.2 508.3,211.1 522.5,211.9 531.1,212.3 542.5,212.8 559.5,213.3 573.8,213.6 585.2,213.7 599.0,213.6 602.1,216.0 603.9,215.6 605.2,217.6 602.7,220.9 603.0,222.5 605.4,225.5 606.9,228.2 609.1,229.4 609.3,244.2 609.5,256.0Z"/><text class="st-label" x="557.3" y="240.5">KS</text></g>
                    <g class="stg" data-state="KY"><title>Kentucky 肯塔基州 (KY)</title><path class="st-path st-flat" tabindex="0" role="button" aria-label="Kentucky" d="M775.3,228.7 776.2,231.8 775.9,233.4 776.5,234.9 781.8,241.6 784.6,243.3 786.6,243.6 782.0,248.7 777.7,252.2 777.2,254.0 775.3,256.8 773.3,258.2 772.0,259.9 768.5,261.8 766.4,262.6 765.1,263.7 764.3,264.1 749.5,265.4 734.7,266.6 724.8,267.2 706.0,269.4 705.6,268.8 702.3,268.8 703.1,272.2 691.1,273.2 683.4,273.7 684.0,272.1 686.7,271.2 687.5,267.8 686.9,264.6 687.1,262.5 688.2,261.0 690.6,260.8 694.4,261.9 696.4,262.1 696.6,260.5 695.7,257.2 699.8,255.0 700.9,253.6 700.3,250.7 701.4,249.0 703.2,248.3 703.1,246.8 705.8,246.6 707.3,247.4 707.3,245.6 710.5,245.7 714.0,247.6 716.1,245.0 717.5,244.1 718.9,244.3 720.3,245.4 722.0,244.8 722.5,242.4 723.3,240.6 725.3,240.6 726.5,242.1 728.1,242.8 730.0,242.2 731.1,238.4 731.9,237.1 733.7,235.7 734.8,233.1 736.3,230.9 735.8,229.4 737.6,228.2 739.6,228.8 743.1,227.0 744.4,225.9 743.5,224.3 743.5,221.1 745.0,220.2 746.6,220.8 748.9,220.4 751.0,222.3 752.2,224.2 753.9,225.2 756.2,225.3 760.0,227.1 762.0,225.9 764.6,226.9 766.7,226.4 769.3,224.7 771.0,224.5 773.1,227.3Z"/><text class="st-label" x="738.0" y="250.0">KY</text></g>
                    <g class="stg" data-state="LA"><title>Louisiana 路易斯安那州 (LA)</title><path class="st-path st-flat" tabindex="0" role="button" aria-label="Louisiana" d="M690.1,387.1 689.1,387.7 683.3,386.2 681.8,384.8 679.0,384.5 677.5,386.4 676.4,388.9 680.2,390.7 683.0,390.0 684.4,388.7 686.8,387.7 688.0,388.6 685.8,390.7 687.0,392.0 689.4,392.1 689.7,390.6 690.7,389.5 692.0,390.2 693.0,391.8 693.1,393.6 690.5,394.6 687.7,397.6 688.5,399.0 691.2,400.9 695.4,402.2 696.4,402.0 697.6,403.5 699.2,404.2 699.2,405.3 697.9,406.2 697.2,407.7 695.9,406.6 694.1,407.0 692.5,404.9 689.6,403.1 686.9,402.7 685.5,400.6 681.0,399.5 682.8,401.3 682.9,402.9 682.3,405.8 680.6,407.2 679.1,404.6 677.8,404.0 674.6,404.6 673.3,406.8 672.2,407.3 668.2,406.4 663.6,404.9 665.7,403.7 664.2,401.8 662.8,400.9 659.9,400.3 657.3,397.0 654.9,397.0 653.8,395.5 651.9,396.3 650.1,398.1 651.0,400.0 648.3,400.8 641.9,400.3 637.4,398.3 633.9,397.3 625.9,397.7 623.9,398.5 622.9,397.0 624.6,395.1 624.3,394.0 625.5,391.5 625.3,388.5 624.8,387.4 625.2,383.5 627.2,378.7 627.8,374.7 627.4,372.3 625.7,369.8 624.5,366.4 623.2,364.8 623.0,362.2 621.8,359.9 619.7,357.8 619.3,339.6 632.7,339.2 643.4,338.8 662.4,338.0 663.3,339.3 662.8,341.7 663.5,343.7 662.8,345.0 664.3,348.5 666.1,350.1 666.2,351.7 664.2,354.3 663.3,356.7 661.4,358.4 660.2,360.4 659.6,362.9 658.1,366.4 658.2,368.2 656.7,370.6 657.3,372.5 656.5,374.5 667.5,374.0 685.8,372.9 684.6,377.8 685.0,379.9 687.2,382.5 689.0,386.6ZM655.6,401.5 655.0,401.7 652.4,400.3 654.2,399.0 655.9,399.9Z"/><text class="st-label" x="642.0" y="380.0">LA</text></g>
                    <g class="stg" data-state="ME"><title>Maine 缅因州 (ME)</title><path class="st-path st-prog" tabindex="0" role="button" aria-label="Maine" d="M914.8,114.9 912.8,112.3 910.5,110.1 906.6,98.2 903.6,88.7 900.0,77.6 901.3,76.5 902.9,76.5 902.9,74.7 904.2,74.0 903.4,71.9 904.3,69.9 905.9,67.7 905.8,66.6 906.6,64.4 905.8,61.8 905.6,58.3 906.8,54.4 906.2,49.6 911.6,34.2 914.0,34.1 914.8,36.7 916.4,37.4 917.7,37.2 921.4,34.6 923.0,32.8 925.9,33.4 930.3,35.6 933.5,45.6 937.8,59.1 940.5,59.8 942.5,59.5 943.0,60.7 942.5,62.0 943.8,63.4 943.8,65.3 945.6,66.6 946.8,65.7 948.5,65.8 950.0,68.7 950.2,70.6 952.0,71.1 950.3,74.5 948.1,74.8 946.1,76.4 945.3,78.2 943.0,78.6 942.8,81.0 941.4,82.7 940.1,81.1 938.0,81.4 937.2,82.8 935.9,82.0 935.7,84.5 935.0,86.0 932.4,85.5 933.1,84.1 931.2,83.9 930.1,85.2 930.5,86.6 930.1,90.0 930.4,91.3 929.0,93.8 927.5,94.0 926.3,96.1 923.5,97.9 923.0,98.9 920.6,98.7 918.3,101.0 917.7,102.9 918.7,103.5 916.1,109.4 915.6,113.5ZM940.0,84.1 937.5,85.6 937.2,84.4 938.0,82.4 938.9,82.5Z"/><text class="st-label" x="921.7" y="69.7">ME</text></g>
                    <g class="stg" data-state="MI"><title>Michigan 密歇根州 (MI)</title><path class="st-path st-flat" tabindex="0" role="button" aria-label="Michigan" d="M736.7,90.2 736.0,90.3 734.6,88.2 736.2,87.2ZM745.2,95.4 745.1,96.4 742.6,97.0 740.8,96.5 743.7,94.0ZM675.2,68.3 675.1,69.1 672.9,70.0 672.8,68.0 679.3,63.9 679.0,66.0ZM695.9,117.1 694.2,114.8 694.3,112.3 692.2,112.7 692.6,110.2 692.4,107.0 690.9,105.8 688.4,105.0 687.8,102.7 683.4,101.9 679.1,101.8 675.5,100.0 662.9,97.4 661.3,94.5 659.3,93.9 659.1,93.2 662.1,91.9 665.6,89.2 667.6,88.3 671.7,87.2 674.0,85.1 676.4,84.0 677.7,82.1 679.8,80.4 680.1,81.5 681.6,82.6 682.6,84.9 682.5,87.2 685.5,84.9 691.0,85.6 692.8,86.5 696.7,91.6 699.0,91.6 700.6,90.9 703.0,92.0 704.4,91.5 705.7,92.0 706.9,90.6 710.3,87.9 713.7,86.7 717.8,86.5 719.9,86.0 723.4,84.3 725.2,84.8 725.3,89.0 728.5,89.3 729.4,88.7 731.6,89.5 734.0,88.2 735.5,90.2 736.0,92.3 738.4,94.9 740.4,96.2 739.4,97.0 734.9,96.9 732.7,97.3 731.2,96.4 729.5,99.8 727.1,98.0 723.3,96.7 720.6,96.6 719.1,98.4 715.0,100.3 712.9,100.0 711.1,100.7 709.8,103.3 708.3,104.3 707.0,106.8 706.3,105.4 707.8,103.4 705.3,102.7 704.4,104.5 702.8,105.4 701.4,105.4 699.9,107.7 698.1,112.3 695.8,116.2ZM685.1,80.3 685.0,81.2 682.7,84.1 682.6,82.1 680.3,81.3 680.8,79.6 682.7,77.3 686.0,75.6 688.8,75.1 690.0,76.3 687.2,76.9 687.4,78.2ZM755.9,171.2 747.1,172.8 738.3,174.2 738.2,173.2 726.2,174.6 711.0,176.1 713.8,173.1 716.2,167.2 717.2,163.6 717.7,159.3 717.3,154.8 716.7,152.6 715.4,149.2 713.7,146.1 711.9,142.1 712.9,139.1 712.5,136.8 711.4,134.3 712.5,132.4 713.8,129.4 714.0,125.4 713.8,122.3 715.1,121.7 715.7,118.6 718.9,116.5 719.9,114.3 721.1,113.6 721.3,117.1 721.0,119.5 723.0,119.2 723.9,115.6 723.5,111.3 725.3,109.6 728.4,108.6 726.7,106.8 726.5,105.0 727.6,103.1 727.8,101.8 730.0,101.2 734.3,102.8 737.6,103.6 738.6,104.9 747.1,107.3 748.3,108.3 750.1,112.3 748.4,112.1 748.5,113.9 750.1,115.4 750.9,118.6 751.2,124.1 749.8,126.3 749.2,126.3 748.4,130.3 745.2,132.4 744.9,135.7 745.4,137.1 747.8,138.1 749.3,137.8 751.0,135.8 752.2,132.1 753.7,130.7 756.8,129.0 759.0,129.8 761.0,132.2 762.4,136.0 765.5,145.6 766.2,146.7 766.0,151.8 765.6,153.9 763.3,156.6 762.0,158.8 759.2,161.0 757.9,167.3 756.8,168.7ZM732.6,100.4 734.9,100.7 734.2,101.8Z"/><text class="st-label" x="742" y="150">MI</text></g>
                    <g class="stg" data-state="MN"><title>Minnesota 明尼苏达州 (MN)</title><path class="st-path st-prog" tabindex="0" role="button" aria-label="Minnesota" d="M621.5,58.8 625.4,58.6 628.0,59.5 632.1,61.7 633.2,64.5 634.6,63.5 636.1,63.2 638.1,63.8 639.9,65.6 644.2,67.9 645.7,67.8 647.7,66.9 649.8,65.2 652.2,64.9 653.4,66.6 658.5,66.4 661.3,65.9 662.6,67.6 666.9,67.7 664.7,69.5 660.4,71.8 655.6,73.9 651.4,77.0 646.5,82.8 643.4,85.8 638.5,90.2 638.0,91.2 635.8,93.1 636.2,103.4 631.3,106.7 629.2,110.4 629.0,112.4 631.4,114.1 631.7,116.2 630.8,118.8 630.6,121.7 631.0,124.2 630.7,126.8 631.1,127.9 632.7,129.3 636.3,130.8 638.0,132.4 640.4,133.4 642.3,135.3 643.3,137.0 644.9,138.1 647.6,139.3 650.2,141.3 650.8,143.8 651.5,149.0 634.7,149.8 626.3,150.1 613.7,150.4 601.1,150.5 584.3,150.6 584.3,130.4 584.4,118.4 583.5,117.0 581.4,115.9 579.5,113.0 579.9,111.8 582.4,109.3 583.2,106.8 583.1,103.3 582.5,99.9 581.1,97.3 580.4,94.2 580.3,91.5 580.7,89.3 580.1,88.4 579.7,77.4 578.2,73.3 577.9,71.4 576.6,67.0 576.4,60.6 576.6,58.0 575.5,52.5 592.2,52.6 600.1,52.6 600.1,45.9 602.6,46.2 603.7,47.0 603.8,50.3 604.3,52.3 606.6,56.9 613.4,58.3 615.8,59.1 617.6,60.5 620.5,59.8Z"/><text class="st-label" x="611.1" y="100.8">MN</text></g>
                    <g class="stg" data-state="MO"><title>Missouri 密苏里州 (MO)</title><path class="st-path st-prog" tabindex="0" role="button" aria-label="Missouri" d="M651.7,205.4 651.0,208.2 651.1,210.5 652.4,215.3 653.1,216.7 655.5,219.2 659.7,222.9 662.4,226.5 663.6,229.9 664.9,231.3 666.2,230.5 669.8,231.2 671.1,232.3 668.9,239.2 668.3,241.9 669.5,244.3 673.0,247.2 674.3,247.7 679.4,251.4 680.9,253.2 682.0,256.9 681.6,259.3 682.0,260.9 683.1,262.8 685.2,263.1 686.9,264.6 687.5,267.8 686.7,271.2 684.0,272.1 683.4,273.7 682.8,273.7 681.8,273.8 682.0,276.1 681.6,278.2 680.5,279.0 681.1,281.0 680.3,283.0 670.7,283.7 671.7,281.7 674.7,278.0 674.6,276.6 673.2,274.4 661.4,275.0 649.5,275.6 641.5,275.9 629.6,276.3 621.7,276.6 609.8,276.8 609.7,267.7 609.5,256.0 609.3,244.2 609.1,229.4 606.9,228.2 605.4,225.5 603.0,222.5 602.7,220.9 605.2,217.6 603.9,215.6 602.1,216.0 599.0,213.6 597.8,211.9 597.4,210.1 595.4,208.4 593.3,202.8 610.2,202.6 623.8,202.2 637.4,201.6 647.6,201.1 648.3,202.4Z"/><text class="st-label" x="639.1" y="242.2">MO</text></g>
                    <g class="stg" data-state="MS"><title>Mississippi 密西西比州 (MS)</title><path class="st-path st-flat" tabindex="0" role="button" aria-label="Mississippi" d="M703.7,299.4 705.1,300.4 704.7,318.8 704.3,332.2 703.8,348.9 703.6,355.6 705.8,372.3 707.1,382.6 702.6,383.3 699.3,382.5 694.5,384.3 693.0,384.2 691.3,386.5 690.1,387.1 689.0,386.6 687.2,382.5 685.0,379.9 684.6,377.8 685.8,372.9 667.5,374.0 656.5,374.5 657.3,372.5 656.7,370.6 658.2,368.2 658.1,366.4 659.6,362.9 660.2,360.4 661.4,358.4 663.3,356.7 664.2,354.3 666.2,351.7 666.1,350.1 664.3,348.5 662.8,345.0 663.5,343.7 662.8,341.7 663.3,339.3 662.4,338.0 662.9,334.3 661.9,332.9 662.1,330.3 660.9,327.8 660.9,326.1 663.1,323.3 662.7,320.6 664.5,319.5 664.8,316.7 666.1,315.4 667.5,312.8 668.6,312.4 669.3,310.7 669.7,306.6 671.4,304.3 672.7,303.4 673.0,301.5 688.3,300.5Z"/><text class="st-label" x="684.7" y="341.4">MS</text></g>
                    <g class="stg" data-state="MT"><title>Montana 蒙大拿州 (MT)</title><path class="st-path st-prog" tabindex="0" role="button" aria-label="Montana" d="M490.4,102.6 489.1,119.4 488.7,119.4 472.1,117.9 458.3,116.4 447.3,115.2 430.9,113.1 414.4,110.7 400.7,108.6 399.3,117.5 397.7,115.6 396.4,112.6 394.9,113.0 393.8,115.8 391.8,115.2 390.0,115.3 384.7,114.0 382.4,115.3 378.4,114.0 376.9,115.4 374.8,113.7 374.4,109.3 373.5,107.7 371.6,107.1 370.4,104.7 370.8,102.2 370.0,100.8 368.8,97.6 368.3,93.2 368.5,92.1 367.0,90.4 362.0,92.9 359.4,90.8 360.2,89.0 360.1,87.2 362.0,85.9 362.2,84.0 361.7,82.9 362.0,80.7 365.0,74.2 365.5,72.3 362.3,71.6 361.7,69.9 360.7,70.0 359.5,67.7 359.2,66.3 355.5,59.3 354.0,58.1 351.9,55.4 352.5,54.4 352.5,50.6 349.9,44.7 353.5,27.5 365.6,30.1 375.5,32.0 390.5,34.8 400.5,36.6 410.5,38.2 425.5,40.5 440.6,42.6 455.7,44.6 465.7,45.7 475.8,46.8 485.9,47.8 494.7,48.6 493.6,62.0 492.6,75.5 491.8,85.6Z"/><text class="st-label" x="423.9" y="75.3">MT</text></g>
                    <g class="stg" data-state="NC"><title>North Carolina 北卡罗来纳州 (NC)</title><path class="st-path st-flat" tabindex="0" role="button" aria-label="North Carolina" d="M873.3,246.1 873.2,247.5 875.7,250.8 875.9,252.4 871.8,251.4 872.2,253.8 871.3,254.5 869.0,254.7 868.1,256.8 867.0,257.3 865.1,256.6 864.8,258.8 866.5,258.7 870.0,257.8 872.0,256.7 874.0,256.6 874.9,261.6 875.9,260.8 875.6,257.7 877.1,256.2 878.5,257.0 879.4,259.3 879.4,261.4 877.2,264.5 875.8,267.1 874.9,267.8 871.6,267.6 870.2,268.0 869.2,266.2 866.5,268.1 870.4,270.3 869.5,272.7 869.5,274.1 867.6,276.0 868.3,276.8 872.2,275.1 873.7,275.8 872.1,279.0 869.5,280.0 869.3,280.9 864.8,282.0 863.6,282.1 862.2,284.0 860.7,284.3 860.7,286.0 859.0,287.7 856.2,291.3 854.4,295.5 853.7,298.6 848.0,299.6 845.8,300.8 838.7,295.7 827.2,287.3 810.8,289.4 810.3,287.0 807.8,284.7 806.4,285.8 805.5,284.3 787.2,286.2 776.8,291.3 759.4,293.8 759.5,289.9 760.1,288.8 762.5,288.0 763.1,285.6 764.7,283.6 766.8,282.5 769.7,281.7 772.7,279.5 774.8,277.5 776.6,276.8 777.7,273.9 778.8,273.8 780.9,271.7 782.9,272.6 784.7,270.2 787.2,268.8 789.2,269.1 790.7,265.5 793.0,264.3 793.0,261.0 793.4,259.6 793.7,259.8 803.9,258.3 814.0,256.8 824.2,255.1 839.4,252.5 849.6,250.7 864.8,247.8Z"/><text class="st-label" x="828.3" y="272.9">NC</text></g>
                    <g class="stg" data-state="ND"><title>North Dakota 北达科他州 (ND)</title><path class="st-path st-prog" tabindex="0" role="button" aria-label="North Dakota" d="M583.2,106.8 565.8,106.6 551.3,106.2 542.6,105.9 525.2,105.0 510.7,104.1 502.0,103.5 490.4,102.6 491.8,85.6 492.6,75.5 493.6,62.0 494.7,48.6 506.1,49.5 516.2,50.2 526.3,50.8 541.5,51.5 556.7,52.1 566.9,52.3 575.5,52.5 576.6,58.0 576.4,60.6 576.6,67.0 577.9,71.4 578.2,73.3 579.7,77.4 580.1,88.4 580.7,89.3 580.3,91.5 580.4,94.2 581.1,97.3 582.5,99.9 583.1,103.3Z"/><text class="st-label" x="535.9" y="78.8">ND</text></g>
                    <g class="stg" data-state="NE"><title>Nebraska 内布拉斯加州 (NE)</title><path class="st-path st-prog" tabindex="0" role="button" aria-label="Nebraska" d="M583.8,168.4 585.1,170.1 585.4,172.9 586.2,175.2 588.1,178.2 589.2,182.4 589.3,185.8 590.2,186.3 591.0,188.0 590.8,189.0 591.7,190.5 592.3,197.6 592.0,200.2 593.3,202.8 595.4,208.4 597.4,210.1 597.8,211.9 599.0,213.6 585.2,213.7 573.8,213.6 559.5,213.3 542.5,212.8 531.1,212.3 522.5,211.9 508.3,211.1 509.5,193.1 496.1,192.2 482.8,191.1 483.9,177.6 485.0,164.1 485.7,155.2 494.7,155.9 508.2,156.9 517.2,157.4 535.2,158.4 544.2,158.7 558.3,159.2 562.2,162.0 564.5,162.8 565.6,162.1 568.0,161.7 571.6,161.6 574.0,162.0 574.9,162.9 579.6,164.9 581.3,166.1 581.8,167.3Z"/><text class="st-label" x="539.9" y="184.9">NE</text></g>
                    <g class="stg" data-state="NM"><title>New Mexico 新墨西哥州 (NM)</title><path class="st-path st-prog" tabindex="0" role="button" aria-label="New Mexico" d="M490.5,273.2 489.9,273.2 488.7,288.4 487.5,303.6 486.3,318.7 484.7,338.9 483.5,354.1 466.6,352.7 453.1,351.5 439.5,350.1 429.3,349.0 430.5,352.4 432.2,353.6 422.2,352.3 405.7,350.2 404.6,358.2 392.0,356.5 394.6,337.6 396.4,324.9 399.0,306.0 400.8,293.3 403.4,274.3 406.0,255.2 421.9,257.3 432.6,258.6 443.2,259.8 453.8,261.0 464.5,262.0 475.1,263.0 491.1,264.2Z"/><text class="st-label" x="442.2" y="306.8">NM</text></g>
                    <g class="stg" data-state="NV"><title>Nevada 内华达州 (NV)</title><path class="st-path st-none" tabindex="0" role="button" aria-label="Nevada" d="M336.3,243.7 333.5,258.2 331.0,260.6 329.7,259.8 328.3,257.9 325.6,257.3 323.7,258.1 323.1,259.3 323.5,261.2 323.0,264.5 323.1,266.4 322.5,269.1 322.9,271.4 321.3,277.8 315.3,269.0 306.8,256.3 298.4,243.5 288.5,228.5 282.6,219.4 272.7,204.9 263.0,190.2 266.4,177.1 269.0,167.3 272.3,154.2 276.6,137.8 286.1,140.2 295.7,142.6 305.3,144.8 314.9,147.0 324.5,149.2 338.9,152.2 353.3,155.1 350.1,171.6 347.5,185.5 345.3,196.6 342.2,213.2 340.0,224.3Z"/><text class="st-label" x="309.5" y="195.3">NV</text></g>
                    <g class="stg" data-state="NY"><title>New York 纽约州 (NY)</title><path class="st-path st-prog" tabindex="0" role="button" aria-label="New York" d="M884.4,128.7 884.0,141.2 884.5,141.6 886.8,155.1 887.9,156.3 885.3,159.0 887.0,160.7 884.8,164.2 883.5,164.4 883.7,162.9 883.4,161.6 871.6,157.5 870.6,156.5 868.1,156.2 866.6,155.0 865.6,153.2 865.4,151.4 864.2,150.0 862.5,149.7 860.6,148.1 848.2,150.8 839.3,152.6 828.5,154.8 816.0,157.1 803.5,159.3 802.6,154.4 805.5,151.8 808.9,148.2 810.4,145.7 812.4,143.1 811.4,140.6 811.1,138.4 809.0,138.1 808.6,134.9 813.0,132.8 815.8,131.7 819.4,130.9 823.8,130.8 826.8,131.6 828.1,131.6 831.3,130.5 835.1,130.0 838.4,127.8 839.4,125.9 841.7,123.9 843.8,122.8 842.5,118.9 843.6,115.6 841.9,113.8 841.0,114.7 839.9,113.8 841.1,112.2 845.3,107.3 845.5,105.5 849.3,99.6 851.5,96.7 855.1,94.0 865.5,91.6 873.6,89.7 874.6,93.7 875.1,96.8 876.4,99.0 877.1,102.4 876.6,105.1 876.8,106.7 878.6,111.4 878.7,113.9 880.0,113.7 881.1,114.7 883.7,126.8ZM901.6,157.2 901.8,158.5 904.3,155.8 906.0,154.9 906.8,155.4 904.2,158.3 900.3,161.2 899.2,161.7 894.1,165.2 893.2,165.3 888.8,167.5 886.9,168.1 885.9,167.2 883.7,169.1 883.2,168.1 884.6,165.0 888.0,161.8 890.6,160.7 891.9,160.8 893.9,159.7 900.1,157.5Z"/><text class="st-label" x="853.5" y="131">NY</text></g>
                    <g class="stg" data-state="OH"><title>Ohio 俄亥俄州 (OH)</title><path class="st-path st-prog" tabindex="0" role="button" aria-label="Ohio" d="M797.6,185.1 796.1,186.1 797.3,190.3 796.9,193.6 795.9,198.9 795.5,202.1 795.7,203.4 794.7,205.2 792.7,207.7 790.3,209.7 788.8,209.4 787.5,211.2 786.2,212.0 784.7,215.6 785.4,217.6 783.5,218.3 782.2,217.4 781.4,218.4 780.1,222.1 780.7,224.4 779.4,226.2 778.4,228.5 777.0,229.0 775.3,228.7 773.1,227.3 771.0,224.5 769.3,224.7 766.7,226.4 764.6,226.9 762.0,225.9 760.0,227.1 756.2,225.3 753.9,225.2 752.2,224.2 751.0,222.3 748.9,220.4 746.6,220.8 745.0,220.2 743.5,221.1 742.2,209.3 740.9,197.6 739.6,185.9 738.3,174.2 747.1,172.8 755.9,171.2 763.5,174.0 764.5,173.1 766.4,173.9 769.0,175.6 774.0,173.3 779.2,172.2 782.4,168.8 785.0,166.6 789.4,163.6 793.6,161.2 795.7,173.9Z"/><text class="st-label" x="768.1" y="196.0">OH</text></g>
                    <g class="stg" data-state="OK"><title>Oklahoma 俄克拉荷马州 (OK)</title><path class="st-path st-prog" tabindex="0" role="button" aria-label="Oklahoma" d="M609.8,276.8 612.7,296.8 612.6,314.5 612.5,328.2 609.2,327.4 606.8,326.1 605.4,324.8 602.7,323.1 601.3,322.8 599.3,324.3 597.1,324.1 595.7,323.3 593.3,324.5 591.0,324.2 588.1,325.3 586.0,326.4 584.0,326.1 581.4,324.7 580.6,323.7 579.1,324.6 575.7,323.1 573.6,326.7 572.8,326.3 572.2,323.8 569.0,324.8 565.7,322.0 562.9,324.0 561.4,323.6 561.4,322.3 559.7,321.0 559.3,319.1 555.5,319.1 553.4,320.0 551.8,318.6 549.0,318.7 546.5,317.6 543.3,317.0 543.2,315.5 542.2,313.9 540.9,313.0 540.2,314.1 536.9,314.0 533.6,311.1 531.7,310.3 532.0,301.6 532.7,286.5 533.1,275.7 525.1,275.4 509.1,274.5 490.5,273.2 491.1,264.2 505.1,265.2 514.9,265.8 524.7,266.3 537.7,266.9 547.5,267.2 557.3,267.5 567.2,267.7 583.5,267.9 593.3,267.9 609.7,267.7Z"/><text class="st-label" x="568.5" y="293.1">OK</text></g>
                    <g class="stg" data-state="OR"><title>Oregon 俄勒冈州 (OR)</title><path class="st-path st-prog" tabindex="0" role="button" aria-label="Oregon" d="M256.6,55.0 258.0,54.9 259.8,56.6 260.3,59.3 260.2,64.9 260.9,66.0 266.1,68.2 267.5,68.4 270.4,67.5 273.2,67.8 276.3,68.8 278.1,69.7 278.6,70.6 280.3,71.2 284.5,71.4 289.0,71.9 291.6,71.9 294.6,71.3 301.1,71.2 304.2,71.7 306.3,71.3 322.6,75.1 332.1,77.3 333.2,79.9 335.6,83.2 335.8,84.7 334.2,87.7 330.8,92.3 328.8,95.2 328.3,96.5 326.6,98.7 323.8,101.5 322.2,103.8 321.9,105.4 323.7,107.1 324.8,108.7 324.1,110.1 323.4,112.7 322.0,115.2 319.2,127.4 314.9,147.0 305.3,144.8 295.7,142.6 286.1,140.2 276.6,137.8 263.1,134.2 253.0,131.5 243.0,128.6 233.0,125.7 222.8,122.7 221.9,120.1 222.4,115.4 223.7,111.9 223.2,107.5 225.4,104.4 228.4,99.1 229.5,98.2 232.7,93.9 234.9,87.7 236.7,83.0 237.8,81.6 239.5,75.5 244.1,65.3 245.2,62.3 246.2,57.6 247.9,52.6 248.6,52.0 251.4,52.9 253.4,52.7 254.5,54.3Z"/><text class="st-label" x="278.4" y="102.3">OR</text></g>
                    <g class="stg" data-state="PA"><title>Pennsylvania 宾夕法尼亚州 (PA)</title><path class="st-path st-flat" tabindex="0" role="button" aria-label="Pennsylvania" d="M871.6,157.5 870.1,159.5 869.6,161.7 867.5,165.1 868.6,167.0 867.7,169.2 868.2,172.4 869.6,173.0 870.9,175.0 871.8,175.1 876.0,178.8 872.1,182.8 871.2,184.7 868.2,186.8 865.3,187.0 863.7,189.5 851.4,192.1 842.1,194.0 832.9,195.8 814.3,199.2 800.3,201.6 797.6,185.1 795.7,173.9 793.6,161.2 795.9,159.9 802.6,154.4 803.5,159.3 816.0,157.1 828.5,154.8 839.3,152.6 848.2,150.8 860.6,148.1 862.5,149.7 864.2,150.0 865.4,151.4 865.6,153.2 866.6,155.0 868.1,156.2 870.6,156.5Z"/><text class="st-label" x="832.8" y="174.5">PA</text></g>
                    <g class="stg" data-state="SC"><title>South Carolina 南卡罗来纳州 (SC)</title><path class="st-path st-prog" tabindex="0" role="button" aria-label="South Carolina" d="M845.8,300.8 842.3,304.2 841.3,305.6 839.0,310.6 838.7,313.7 837.8,315.8 836.0,317.8 833.7,319.0 833.5,320.7 830.0,324.6 828.4,326.8 825.5,328.1 823.7,329.8 820.5,329.7 822.3,331.5 822.4,332.8 820.7,334.1 819.8,332.4 818.4,334.4 819.7,335.7 818.9,337.1 817.6,337.9 817.5,339.4 814.3,338.5 813.2,337.3 812.1,333.9 809.8,331.0 808.4,330.3 807.2,328.3 805.8,324.7 804.2,322.6 800.9,320.8 797.9,316.6 796.7,315.4 793.3,313.4 792.4,311.9 786.9,307.8 782.7,302.1 782.1,300.9 778.9,300.0 777.0,298.6 774.0,297.0 774.4,295.2 776.8,291.3 787.2,286.2 805.5,284.3 806.4,285.8 807.8,284.7 810.3,287.0 810.8,289.4 827.2,287.3 838.7,295.7Z"/><text class="st-label" x="811.9" y="305.9">SC</text></g>
                    <g class="stg" data-state="SD"><title>South Dakota 南达科他州 (SD)</title><path class="st-path st-none" tabindex="0" role="button" aria-label="South Dakota" d="M583.2,106.8 582.4,109.3 579.9,111.8 579.5,113.0 581.4,115.9 583.5,117.0 584.4,118.4 584.3,130.4 584.3,150.6 582.4,150.6 583.1,152.9 582.9,155.4 583.8,155.9 584.1,157.8 582.0,164.4 583.1,165.7 583.8,168.4 581.8,167.3 581.3,166.1 579.6,164.9 574.9,162.9 574.0,162.0 571.6,161.6 568.0,161.7 565.6,162.1 564.5,162.8 562.2,162.0 558.3,159.2 544.2,158.7 535.2,158.4 517.2,157.4 508.2,156.9 494.7,155.9 485.7,155.2 487.2,137.3 488.7,119.4 489.1,119.4 490.4,102.6 502.0,103.5 510.7,104.1 525.2,105.0 542.6,105.9 551.3,106.2 565.8,106.6Z"/><text class="st-label" x="536.4" y="132.4">SD</text></g>
                    <g class="stg" data-state="TN"><title>Tennessee 田纳西州 (TN)</title><path class="st-path st-none" tabindex="0" role="button" aria-label="Tennessee" d="M765.1,263.7 775.1,262.4 789.3,260.4 789.9,260.0 793.4,259.6 793.0,261.0 793.0,264.3 790.7,265.5 789.2,269.1 787.2,268.8 784.7,270.2 782.9,272.6 780.9,271.7 778.8,273.8 777.7,273.9 776.6,276.8 774.8,277.5 772.7,279.5 769.7,281.7 766.8,282.5 764.7,283.6 763.1,285.6 762.5,288.0 760.1,288.8 759.5,289.9 759.4,293.8 740.6,295.8 724.4,297.3 715.1,298.0 703.5,298.9 703.7,299.4 688.3,300.5 673.0,301.5 675.1,299.3 675.7,297.7 675.3,295.7 675.8,293.9 677.2,292.2 677.6,290.5 677.3,289.0 677.9,287.7 679.5,286.5 680.5,284.7 680.3,283.0 681.1,281.0 680.5,279.0 681.6,278.2 682.0,276.1 681.8,273.8 682.8,273.7 683.4,273.7 691.1,273.2 703.1,272.2 702.3,268.8 705.6,268.8 706.0,269.4 724.8,267.2 734.7,266.6 749.5,265.4 764.3,264.1Z"/><text class="st-label" x="728.6" y="281.3">TN</text></g>
                    <g class="stg" data-state="TX"><title>Texas 德克萨斯州 (TX)</title><path class="st-path st-none" tabindex="0" role="button" aria-label="Texas" d="M574.0,431.4 574.6,429.4 575.9,427.6 576.8,428.1ZM571.1,462.3 569.6,459.3 567.6,450.6 568.4,450.9 570.7,459.8ZM612.5,328.2 614.1,329.7 615.4,329.3 619.0,329.8 619.3,339.6 619.7,357.8 621.8,359.9 623.0,362.2 623.2,364.8 624.5,366.4 625.7,369.8 627.4,372.3 627.8,374.7 627.2,378.7 625.2,383.5 624.8,387.4 625.3,388.5 625.5,391.5 624.3,394.0 623.5,394.0 622.0,396.9 622.9,399.2 619.6,399.6 612.3,403.0 611.8,401.6 609.1,401.9 609.9,400.0 609.6,398.3 608.2,398.3 607.4,399.7 605.3,399.2 605.8,402.3 607.5,405.1 603.6,408.8 603.4,410.4 601.5,412.5 592.4,418.3 589.8,419.2 585.8,418.0 583.0,419.1 581.1,416.9 580.1,417.0 581.8,421.0 583.5,421.5 581.2,423.1 579.4,423.6 577.9,422.1 577.4,425.7 576.0,426.8 574.8,426.3 571.8,427.0 572.0,428.5 573.1,429.9 571.5,431.8 570.2,432.2 568.3,431.9 567.4,432.5 569.6,435.5 568.1,439.9 567.1,441.5 565.8,441.7 563.3,440.3 563.1,442.2 566.4,443.1 566.5,445.2 565.2,447.9 566.5,452.8 567.0,456.5 567.5,458.1 570.4,464.0 571.5,464.0 571.5,465.9 569.3,466.2 568.0,467.4 566.7,467.0 564.3,465.3 560.9,464.3 556.3,463.8 553.2,462.9 549.9,460.8 548.1,460.5 545.4,458.6 543.7,457.8 541.4,457.4 539.9,456.5 539.0,454.4 538.2,450.9 537.1,448.7 534.9,445.9 535.0,443.5 534.0,440.4 534.5,438.2 534.2,436.7 532.9,435.1 530.4,433.4 528.4,430.8 526.7,427.5 525.1,425.2 523.4,423.9 522.3,422.3 521.9,419.2 518.7,413.3 517.5,410.6 517.2,408.9 515.8,406.7 511.9,402.6 511.6,401.6 507.7,398.2 505.7,395.6 497.2,394.7 494.6,394.0 493.0,393.1 489.7,394.7 487.5,394.8 485.5,396.6 483.7,400.1 482.5,404.1 480.4,405.4 479.2,407.0 477.9,407.7 476.5,407.5 474.0,406.1 470.5,403.3 467.6,401.6 465.6,400.8 463.8,399.6 462.3,397.8 459.6,395.8 458.1,393.8 456.6,390.5 455.9,388.0 456.1,385.4 454.3,379.6 452.4,375.9 448.2,372.6 444.8,369.1 440.8,364.0 437.9,360.9 436.1,359.7 434.6,357.9 433.5,355.3 432.2,353.6 430.5,352.4 429.3,349.0 439.5,350.1 453.1,351.5 466.6,352.7 483.5,354.1 484.7,338.9 486.3,318.7 487.5,303.6 488.7,288.4 489.9,273.2 490.5,273.2 509.1,274.5 525.1,275.4 533.1,275.7 532.7,286.5 532.0,301.6 531.7,310.3 533.6,311.1 536.9,314.0 540.2,314.1 540.9,313.0 542.2,313.9 543.2,315.5 543.3,317.0 546.5,317.6 549.0,318.7 551.8,318.6 553.4,320.0 555.5,319.1 559.3,319.1 559.7,321.0 561.4,322.3 561.4,323.6 562.9,324.0 565.7,322.0 569.0,324.8 572.2,323.8 572.8,326.3 573.6,326.7 575.7,323.1 579.1,324.6 580.6,323.7 581.4,324.7 584.0,326.1 586.0,326.4 588.1,325.3 591.0,324.2 593.3,324.5 595.7,323.3 597.1,324.1 599.3,324.3 601.3,322.8 602.7,323.1 605.4,324.8 606.8,326.1 609.2,327.4Z"/><text class="st-label" x="539.5" y="366.3">TX</text></g>
                    <g class="stg" data-state="UT"><title>Utah 犹他州 (UT)</title><path class="st-path st-flat" tabindex="0" role="button" aria-label="Utah" d="M392.2,161.9 389.4,179.7 406.0,182.2 415.9,183.7 414.7,192.6 412.2,210.5 409.7,228.4 407.3,246.3 406.0,255.2 392.9,253.3 384.2,252.0 366.7,249.2 349.3,246.1 336.3,243.7 340.0,224.3 342.2,213.2 345.3,196.6 347.5,185.5 350.1,171.6 353.3,155.1 367.9,157.8 380.0,159.9Z"/><text class="st-label" x="376.2" y="208.5">UT</text></g>
                    <g class="stg" data-state="VA"><title>Virginia 弗吉尼亚州 (VA)</title><path class="st-path st-prog" tabindex="0" role="button" aria-label="Virginia" d="M839.1,201.5 842.8,203.1 843.2,205.0 845.8,205.6 848.6,207.0 850.1,207.7 850.3,209.8 848.0,213.5 848.0,217.2 849.3,218.0 851.7,217.2 854.2,219.7 859.5,220.5 860.8,221.7 864.1,223.2 864.2,226.4 863.8,227.3 862.1,228.5 864.8,229.0 865.5,230.3 866.1,232.7 864.1,232.6 864.8,235.6 866.0,236.5 867.0,238.1 865.6,239.6 860.6,236.4 856.0,235.5 857.5,236.9 861.2,237.1 862.2,239.2 866.0,241.3 867.9,239.8 871.4,239.8 874.8,245.7 874.3,245.8 873.3,246.1 864.8,247.8 849.6,250.7 839.4,252.5 824.2,255.1 814.0,256.8 803.9,258.3 793.7,259.8 793.4,259.6 789.9,260.0 789.3,260.4 775.1,262.4 765.1,263.7 766.4,262.6 768.5,261.8 772.0,259.9 773.3,258.2 775.3,256.8 777.2,254.0 777.7,252.2 782.0,248.7 786.6,243.6 786.7,244.8 787.8,246.6 789.1,247.6 791.7,248.7 793.1,248.7 795.7,246.0 797.6,247.0 801.5,245.7 802.8,243.2 804.3,243.4 807.0,241.7 807.8,242.3 809.6,240.5 810.2,238.4 809.5,237.5 810.4,234.6 812.7,230.2 813.3,227.6 815.2,223.2 815.4,220.6 816.2,219.8 817.8,221.1 819.4,221.5 821.4,220.8 823.1,214.7 825.4,213.8 826.6,211.9 828.7,209.9 830.1,206.6 830.7,201.2 838.3,205.4ZM872.2,220.4 872.5,219.5 875.8,218.3 874.3,225.9 874.7,227.1 873.3,228.2 872.1,230.2 872.0,232.6 871.4,235.3 870.2,233.6 869.9,231.1 870.3,227.0 871.9,222.9Z"/><text class="st-label" x="835.0" y="217.0">VA</text></g>
                    <g class="stg" data-state="WA"><title>Washington 华盛顿州 (WA)</title><path class="st-path st-none" tabindex="0" role="button" aria-label="Washington" d="M332.1,77.3 322.6,75.1 306.3,71.3 304.2,71.7 301.1,71.2 294.6,71.3 291.6,71.9 289.0,71.9 284.5,71.4 280.3,71.2 278.6,70.6 278.1,69.7 276.3,68.8 273.2,67.8 270.4,67.5 267.5,68.4 266.1,68.2 260.9,66.0 260.2,64.9 260.3,59.3 259.8,56.6 258.0,54.9 256.6,55.0 254.8,53.2 254.3,52.1 252.1,51.5 251.8,50.8 249.2,50.6 247.2,49.8 248.5,46.3 249.5,47.6 251.3,43.9 249.6,41.8 249.7,39.7 253.4,38.9 251.4,37.1 249.9,36.9 250.5,33.5 250.2,29.8 250.8,25.2 250.5,22.8 249.2,20.2 249.6,15.7 251.6,12.1 253.5,14.1 256.1,16.0 258.1,18.0 265.7,21.1 267.8,21.2 268.6,22.7 270.6,23.1 271.6,24.8 271.9,27.4 269.5,28.3 266.5,31.8 269.8,30.1 272.6,28.0 272.9,29.7 271.5,30.4 270.8,35.8 269.9,37.7 267.3,36.3 265.9,36.6 264.5,38.3 267.6,40.4 269.0,39.7 270.3,38.1 272.9,37.1 273.9,33.1 273.6,32.1 274.7,29.3 277.3,26.5 276.6,24.4 275.0,23.7 275.2,21.9 276.8,21.1 276.3,19.5 274.6,17.4 276.8,17.3 277.4,14.4 277.4,12.4 276.3,12.3 275.8,8.0 286.8,11.1 296.5,13.8 311.2,17.6 321.1,20.1 330.9,22.5 342.0,25.0 338.4,41.6 335.9,52.8 332.2,69.5 332.0,71.3 332.4,73.1 331.9,75.0ZM274.3,13.5 272.7,14.4 271.8,13.6 273.2,12.4ZM274.2,22.9 275.8,26.5 274.9,27.6 273.6,25.8 273.7,23.3 272.6,21.0 274.1,19.3 275.2,20.7 273.2,21.1Z"/><text class="st-label" x="295.7" y="43.3">WA</text></g>
                    <g class="stg" data-state="WI"><title>Wisconsin 威斯康星州 (WI)</title><path class="st-path st-prog" tabindex="0" role="button" aria-label="Wisconsin" d="M703.4,114.0 702.6,114.5 702.8,116.5 701.5,118.8 700.4,121.6 699.1,121.2 698.8,119.6 700.2,116.1 701.8,114.5ZM659.1,93.2 659.3,93.9 661.3,94.5 662.9,97.4 675.5,100.0 679.1,101.8 683.4,101.9 687.8,102.7 688.4,105.0 690.9,105.8 692.4,107.0 692.6,110.2 692.2,112.7 694.3,112.3 694.2,114.8 695.9,117.1 695.7,118.5 693.3,120.3 691.3,126.3 692.7,127.2 694.8,124.7 696.3,121.7 698.6,121.2 699.6,122.3 699.7,123.7 698.8,126.0 698.0,129.9 698.3,133.7 696.9,135.9 696.3,138.7 696.9,141.9 695.9,145.4 695.0,150.7 695.4,154.4 697.3,159.4 697.3,164.0 689.8,164.6 678.0,165.4 660.2,166.4 659.6,164.7 658.2,163.6 655.9,162.9 654.5,161.7 653.7,160.1 653.0,156.2 653.3,152.0 652.0,150.9 651.5,149.0 650.8,143.8 650.2,141.3 647.6,139.3 644.9,138.1 643.3,137.0 642.3,135.3 640.4,133.4 638.0,132.4 636.3,130.8 632.7,129.3 631.1,127.9 630.7,126.8 631.0,124.2 630.6,121.7 630.8,118.8 631.7,116.2 631.4,114.1 629.0,112.4 629.2,110.4 631.3,106.7 636.2,103.4 635.8,93.1 638.0,91.2 639.5,92.3 641.4,92.1 645.5,90.8 648.8,88.5 650.0,88.8 652.1,87.1 653.4,86.9 654.3,87.8 653.3,90.5 652.7,93.4 654.9,91.7 657.5,93.2Z"/><text class="st-label" x="666.1" y="128.0">WI</text></g>
                    <g class="stg" data-state="WV"><title>West Virginia 西弗吉尼亚州 (WV)</title><path class="st-path st-prog" tabindex="0" role="button" aria-label="West Virginia" d="M814.3,199.2 815.7,208.3 818.1,206.1 820.5,202.6 821.9,202.7 823.7,200.3 828.1,200.2 829.0,198.3 831.8,196.7 834.1,197.2 836.1,197.2 837.5,198.7 839.1,201.5 838.3,205.4 830.7,201.2 830.1,206.6 828.7,209.9 826.6,211.9 825.4,213.8 823.1,214.7 821.4,220.8 819.4,221.5 817.8,221.1 816.2,219.8 815.4,220.6 815.2,223.2 813.3,227.6 812.7,230.2 810.4,234.6 809.5,237.5 810.2,238.4 809.6,240.5 807.8,242.3 807.0,241.7 804.3,243.4 802.8,243.2 801.5,245.7 797.6,247.0 795.7,246.0 793.1,248.7 791.7,248.7 789.1,247.6 787.8,246.6 786.7,244.8 786.6,243.6 784.6,243.3 781.8,241.6 776.5,234.9 775.9,233.4 776.2,231.8 775.3,228.7 777.0,229.0 778.4,228.5 779.4,226.2 780.7,224.4 780.1,222.1 781.4,218.4 782.2,217.4 783.5,218.3 785.4,217.6 784.7,215.6 786.2,212.0 787.5,211.2 788.8,209.4 790.3,209.7 792.7,207.7 794.7,205.2 795.7,203.4 795.5,202.1 795.9,198.9 796.9,193.6 797.3,190.3 796.1,186.1 797.6,185.1 800.3,201.6Z"/><text class="st-label" x="803.0" y="222.0">WV</text></g>
                    <g class="stg" data-state="WY"><title>Wyoming 怀俄明州 (WY)</title><path class="st-path st-none" tabindex="0" role="button" aria-label="Wyoming" d="M485.7,155.2 485.0,164.1 483.9,177.6 482.8,191.1 470.2,190.0 453.5,188.3 445.1,187.4 432.6,185.9 415.9,183.7 406.0,182.2 389.4,179.7 392.2,161.9 395.3,142.5 397.5,128.6 399.3,117.5 400.7,108.6 414.4,110.7 430.9,113.1 447.3,115.2 458.3,116.4 472.1,117.9 488.7,119.4 487.2,137.3Z"/><text class="st-label" x="440.3" y="150.6">WY</text></g>
                    <g class="stg callout" data-state="CT"><title>Connecticut 康涅狄格州 (CT)</title><path class="st-path st-prog" tabindex="0" role="button" aria-label="Connecticut" d="M906.1,136.9 908.4,145.5 908.7,148.9 907.5,149.1 903.4,151.1 902.0,151.1 900.7,152.0 896.0,153.4 894.9,153.3 893.9,154.8 892.0,156.1 887.5,160.0 887.0,160.7 885.3,159.0 887.9,156.3 886.8,155.1 884.5,141.6 893.2,139.8 906.1,136.8Z"/><line class="st-leader" x1="896.0" y1="146.7" x2="910" y2="278"/><rect class="st-chip" x="910" y="268" width="44" height="20" rx="7" tabindex="0" role="button" aria-label="Connecticut"/><text class="st-chip-label" x="932" y="278">CT</text></g>
                    <g class="stg callout" data-state="DC"><title>District of Columbia 华盛顿特区 (DC)</title><path class="st-path st-prog" tabindex="0" role="button" aria-label="District of Columbia" d="M850.1,207.7 848.6,207.0 849.5,205.6 851.4,207.5Z"/><line class="st-leader" x1="849.9" y1="206.9" x2="910" y2="386"/><rect class="st-chip" x="910" y="376" width="44" height="20" rx="7" tabindex="0" role="button" aria-label="District of Columbia"/><text class="st-chip-label" x="932" y="386">DC</text></g>
                    <g class="stg callout" data-state="DE"><title>Delaware 特拉华州 (DE)</title><path class="st-path st-prog" tabindex="0" role="button" aria-label="Delaware" d="M868.2,186.8 866.6,190.4 867.5,193.2 870.4,196.2 871.4,199.5 875.2,203.7 876.7,204.1 876.7,206.8 877.7,207.6 878.7,209.6 869.6,211.7 865.2,195.0 863.7,189.5 865.3,187.0Z"/><line class="st-leader" x1="870.3" y1="201.7" x2="910" y2="332"/><rect class="st-chip" x="910" y="322" width="44" height="20" rx="7" tabindex="0" role="button" aria-label="Delaware"/><text class="st-chip-label" x="932" y="332">DE</text></g>
                    <g class="stg callout" data-state="MA"><title>Massachusetts 马萨诸塞州 (MA)</title><path class="st-path st-flat" tabindex="0" role="button" aria-label="Massachusetts" d="M925.6,143.6 922.3,145.4 923.2,142.9 923.9,142.6ZM914.8,118.5 914.7,119.5 916.6,121.9 917.8,122.6 916.0,124.3 914.3,128.8 918.7,129.6 921.1,132.4 920.9,133.5 922.5,134.0 923.5,136.2 926.7,136.7 930.0,134.0 928.1,131.6 929.6,131.5 930.8,134.1 931.4,136.4 930.0,136.8 925.8,138.9 923.0,141.4 921.6,138.4 918.9,142.2 916.3,143.5 914.8,140.4 913.0,139.1 911.4,135.5 906.1,136.9 906.1,136.8 893.2,139.8 884.5,141.6 884.0,141.2 884.4,128.7 894.5,126.6 909.0,123.3 910.9,120.9 912.7,119.2Z"/><line class="st-leader" x1="904.7" y1="132.5" x2="910" y2="224"/><rect class="st-chip" x="910" y="214" width="44" height="20" rx="7" tabindex="0" role="button" aria-label="Massachusetts"/><text class="st-chip-label" x="932" y="224">MA</text></g>
                    <g class="stg callout" data-state="MD"><title>Maryland 马里兰州 (MD)</title><path class="st-path st-prog" tabindex="0" role="button" aria-label="Maryland" d="M863.7,189.5 865.2,195.0 869.6,211.7 878.7,209.6 877.6,211.2 877.8,213.6 877.0,214.0 875.8,218.3 872.5,219.5 872.2,220.4 869.5,220.6 869.8,218.4 867.7,217.4 868.2,215.5 865.6,215.8 863.1,214.8 861.5,212.7 861.5,210.7 864.2,209.7 860.2,207.0 861.8,206.0 859.3,203.6 861.1,203.6 859.7,200.2 860.3,197.8 862.4,194.6 861.9,192.4 860.6,193.2 860.6,195.5 858.6,198.0 857.0,198.7 857.1,200.1 854.9,200.0 857.6,202.8 857.1,203.7 856.9,206.2 857.3,209.0 858.5,212.6 860.1,214.3 860.0,215.4 862.3,219.0 858.4,218.2 854.1,217.9 851.0,215.8 849.0,216.8 848.6,215.3 849.5,212.3 850.6,209.7 850.1,207.7 851.4,207.5 849.5,205.6 848.6,207.0 845.8,205.6 843.2,205.0 842.8,203.1 839.1,201.5 837.5,198.7 836.1,197.2 834.1,197.2 831.8,196.7 829.0,198.3 828.1,200.2 823.7,200.3 821.9,202.7 820.5,202.6 818.1,206.1 815.7,208.3 814.3,199.2 832.9,195.8 842.1,194.0 851.4,192.1Z"/><line class="st-leader" x1="852.7" y1="204.0" x2="910" y2="359"/><rect class="st-chip" x="910" y="349" width="44" height="20" rx="7" tabindex="0" role="button" aria-label="Maryland"/><text class="st-chip-label" x="932" y="359">MD</text></g>
                    <g class="stg callout" data-state="NH"><title>New Hampshire 新罕布什尔州 (NH)</title><path class="st-path st-none" tabindex="0" role="button" aria-label="New Hampshire" d="M914.8,114.9 914.8,118.5 912.7,119.2 910.9,120.9 909.0,123.3 894.5,126.6 892.7,124.1 893.0,121.2 892.6,115.9 892.0,112.4 892.2,108.9 892.8,107.3 893.4,103.9 893.4,101.1 892.9,97.8 894.7,96.4 896.6,94.1 897.2,91.0 895.9,88.3 896.6,85.6 896.0,83.9 896.4,80.3 897.1,78.4 898.7,78.5 900.0,77.6 903.6,88.7 906.6,98.2 910.5,110.1 912.8,112.3Z"/><line class="st-leader" x1="901.3" y1="107.1" x2="910" y2="197"/><rect class="st-chip" x="910" y="187" width="44" height="20" rx="7" tabindex="0" role="button" aria-label="New Hampshire"/><text class="st-chip-label" x="932" y="197">NH</text></g>
                    <g class="stg callout" data-state="NJ"><title>New Jersey 新泽西州 (NJ)</title><path class="st-path st-prog" tabindex="0" role="button" aria-label="New Jersey" d="M883.4,161.6 883.5,163.0 882.8,166.1 880.8,169.3 881.2,172.0 883.9,171.9 885.5,173.4 885.6,178.1 885.0,180.7 885.1,184.6 884.5,186.9 883.2,189.5 883.1,191.4 881.2,193.6 879.8,199.3 877.8,200.7 877.8,197.1 875.5,196.4 874.4,196.7 870.9,195.0 868.1,192.8 867.7,190.9 868.3,187.3 869.0,186.4 871.5,185.1 872.1,182.8 876.0,178.8 871.8,175.1 870.9,175.0 869.6,173.0 868.2,172.4 867.7,169.2 868.6,167.0 867.5,165.1 869.6,161.7 870.1,159.5 871.6,157.5Z"/><line class="st-leader" x1="876.6" y1="177.9" x2="910" y2="305"/><rect class="st-chip" x="910" y="295" width="44" height="20" rx="7" tabindex="0" role="button" aria-label="New Jersey"/><text class="st-chip-label" x="932" y="305">NJ</text></g>
                    <g class="stg callout" data-state="RI"><title>Rhode Island 罗德岛州 (RI)</title><path class="st-path st-prog" tabindex="0" role="button" aria-label="Rhode Island" d="M914.8,140.4 913.3,139.7 912.7,142.3 913.3,145.5 912.6,147.1 909.6,148.7 908.7,148.9 908.4,145.5 906.1,136.9 911.4,135.5 913.0,139.1Z"/><line class="st-leader" x1="910.1" y1="141.7" x2="910" y2="251"/><rect class="st-chip" x="910" y="241" width="44" height="20" rx="7" tabindex="0" role="button" aria-label="Rhode Island"/><text class="st-chip-label" x="932" y="251">RI</text></g>
                    <g class="stg callout" data-state="VT"><title>Vermont 佛蒙特州 (VT)</title><path class="st-path st-prog" tabindex="0" role="button" aria-label="Vermont" d="M894.5,126.6 884.4,128.7 883.7,126.8 881.1,114.7 880.0,113.7 878.7,113.9 878.6,111.4 876.8,106.7 876.6,105.1 877.1,102.4 876.4,99.0 875.1,96.8 874.6,93.7 873.6,89.7 885.9,86.6 896.0,83.9 896.6,85.6 895.9,88.3 897.2,91.0 896.6,94.1 894.7,96.4 892.9,97.8 893.4,101.1 893.4,103.9 892.8,107.3 892.2,108.9 892.0,112.4 892.6,115.9 893.0,121.2 892.7,124.1Z"/><line class="st-leader" x1="886.1" y1="103.9" x2="910" y2="170"/><rect class="st-chip" x="910" y="160" width="44" height="20" rx="7" tabindex="0" role="button" aria-label="Vermont"/><text class="st-chip-label" x="932" y="170">VT</text></g>
                    </svg>